HIERARCHY
ROOT joint_Root
{
	OFFSET 0.0 0.0 0.0
	CHANNELS 6 Xposition Yposition Zposition Zrotation Xrotation Yrotation 
	JOINT Hips
	{
		OFFSET -0.726466 93.3139 -2.00062
		CHANNELS 6 Xposition Yposition Zposition Zrotation Xrotation Yrotation 
		JOINT Spine
		{
			OFFSET 15.7357 0.0 0.0
			CHANNELS 6 Xposition Yposition Zposition Zrotation Xrotation Yrotation 
			JOINT Chest
			{
				OFFSET 8.98455 -0.406207 0.0
				CHANNELS 6 Xposition Yposition Zposition Zrotation Xrotation Yrotation 
				JOINT Neck
				{
					OFFSET 16.3773 0.0 0.0
					CHANNELS 6 Xposition Yposition Zposition Zrotation Xrotation Yrotation 
					JOINT Head
					{
						OFFSET 6.45672 0.0 0.0
						CHANNELS 6 Xposition Yposition Zposition Zrotation Xrotation Yrotation 
						End Site
						{
							OFFSET 0.0 0.0 0.0
						}
					}
				}
				JOINT Shoulder_L
				{
					OFFSET 12.9942 -0.242716 4.98039
					CHANNELS 6 Xposition Yposition Zposition Zrotation Xrotation Yrotation 
					JOINT UpperArm_L
					{
						OFFSET 5.34809 0.0 0.0
						CHANNELS 6 Xposition Yposition Zposition Zrotation Xrotation Yrotation 
						JOINT LowerArm_L
						{
							OFFSET 24.3286 1.87007e-05 0.0
							CHANNELS 6 Xposition Yposition Zposition Zrotation Xrotation Yrotation 
							JOINT Hand_L
							{
								OFFSET 22.2916 0.0 0.0
								CHANNELS 6 Xposition Yposition Zposition Zrotation Xrotation Yrotation 
								End Site
								{
									OFFSET 0.0 0.0 0.0
								}
							}
						}
					}
				}
				JOINT Shoulder_R
				{
					OFFSET 12.9945 -0.242716 -4.98039
					CHANNELS 6 Xposition Yposition Zposition Zrotation Xrotation Yrotation 
					JOINT UpperArm_R
					{
						OFFSET -5.34813 0.0 0.0
						CHANNELS 6 Xposition Yposition Zposition Zrotation Xrotation Yrotation 
						JOINT LowerArm_R
						{
							OFFSET -24.3289 0.000322201 0.0
							CHANNELS 6 Xposition Yposition Zposition Zrotation Xrotation Yrotation 
							JOINT Hand_R
							{
								OFFSET -22.2915 -0.000108084 0.0
								CHANNELS 6 Xposition Yposition Zposition Zrotation Xrotation Yrotation 
								End Site
								{
									OFFSET 0.0 0.0 0.0
								}
							}
						}
					}
				}
			}
		}
		JOINT UpperLeg_L
		{
			OFFSET -2.19248 -6.46944 0.0
			CHANNELS 6 Xposition Yposition Zposition Zrotation Xrotation Yrotation 
			JOINT LowerLeg_L
			{
				OFFSET 39.0811 0.0 -1.23785e-05
				CHANNELS 6 Xposition Yposition Zposition Zrotation Xrotation Yrotation 
				JOINT Foot_L
				{
					OFFSET 40.9854 0.0 -1.26872e-05
					CHANNELS 6 Xposition Yposition Zposition Zrotation Xrotation Yrotation 
					JOINT Toes_L
					{
						OFFSET 11.7543 0.0 0.0
						CHANNELS 6 Xposition Yposition Zposition Zrotation Xrotation Yrotation 
						End Site
						{
							OFFSET 0.0 0.0 0.0
						}
					}
				}
			}
		}
		JOINT UpperLeg_R
		{
			OFFSET -2.19251 6.46944 0.0
			CHANNELS 6 Xposition Yposition Zposition Zrotation Xrotation Yrotation 
			JOINT LowerLeg_R
			{
				OFFSET -39.0811 -0.00228153 -0.0401928
				CHANNELS 6 Xposition Yposition Zposition Zrotation Xrotation Yrotation 
				JOINT Foot_R
				{
					OFFSET -40.9854 0.0 0.0
					CHANNELS 6 Xposition Yposition Zposition Zrotation Xrotation Yrotation 
					JOINT Toes_R
					{
						OFFSET -11.7543 0.0 0.0
						CHANNELS 6 Xposition Yposition Zposition Zrotation Xrotation Yrotation 
						End Site
						{
							OFFSET 0.0 0.0 0.0
						}
					}
				}
			}
		}
	}
}
MOTION
Frames:	5
Frame Time:	0.0333333
0.000000 0.000000 0.000000 0.000000 0.000000 -0.000000 -2.413850 92.315000 -1.376940 88.604600 1.315040 3.810450 15.735700 0.000005 -0.000001 77.385400 85.789200 -75.922300 8.984550 -0.406207 -0.000000 0.479148 -1.931640 2.932400 16.377300 -0.000001 -0.000001 2.818970 -3.038730 -1.813750 6.456720 -0.000001 -0.000000 3.552330 -3.980340 -1.740690 12.994200 -0.242716 4.980390 -88.087100 -5.759610 -71.592000 5.348090 -0.000007 -0.000001 -80.842100 -33.943400 -83.265500 24.328600 0.000019 0.000005 5.503520 0.251552 -87.391200 22.291600 -0.000001 0.000005 21.721100 5.594550 -11.021700 12.994500 -0.242716 -4.980390 88.286100 5.627120 -73.029700 -5.348130 -0.000001 -0.000004 -63.619600 40.093400 -16.783000 -24.328900 0.000322 -0.000009 2.070090 7.159310 -16.181200 -22.291500 -0.000108 -0.000004 8.391340 5.429960 -3.937510 -2.192480 -6.469440 -0.000000 -175.003000 -5.024200 -2.947390 39.081100 -0.000007 -0.000012 -0.112724 0.277113 22.135500 40.985400 -0.000006 -0.000013 -1.048160 5.045560 -65.639400 11.754300 -0.000000 0.000003 -0.000026 -0.000314 -16.589800 -2.192510 6.469440 -0.000001 -179.500000 15.297600 -179.653000 -39.081100 -0.002282 -0.040193 -0.013053 0.047013 19.204800 -40.985400 0.000008 0.000006 5.196680 5.772150 -66.577100 -11.754300 -0.000006 -0.000006 -0.005901 -0.069936 -19.419300
0.000000 0.000000 0.000000 0.000000 0.000000 -0.000000 -2.423540 92.318700 -1.419920 88.609500 1.249040 3.800270 15.735700 0.000005 -0.000001 77.640800 85.784900 -76.212800 8.984550 -0.406207 -0.000000 0.494492 -1.894410 2.862370 16.377300 -0.000001 -0.000001 2.726290 -2.995290 -1.779670 6.456720 -0.000001 -0.000000 3.603090 -3.910670 -1.528490 12.994200 -0.242716 4.980390 -88.083000 -5.773850 -71.597800 5.348090 -0.000007 -0.000001 -80.748900 -34.043100 -83.178700 24.328600 0.000019 0.000005 5.638940 0.257943 -87.389500 22.291600 -0.000001 0.000005 21.813500 5.594340 -11.010000 12.994500 -0.242716 -4.980390 88.276600 5.654900 -73.020100 -5.348130 -0.000001 -0.000004 -63.616700 39.998200 -16.765300 -24.328900 0.000322 -0.000009 2.085360 7.177820 -16.254800 -22.291500 -0.000108 -0.000004 8.395940 5.429790 -3.931720 -2.192480 -6.469440 -0.000000 -175.008000 -5.064070 -2.974220 39.081100 -0.000007 -0.000012 -0.112239 0.276074 22.124500 40.985400 -0.000006 -0.000013 -1.062970 4.997200 -65.605700 11.754300 -0.000000 0.000003 -0.000027 -0.000325 -16.590200 -2.192510 6.469440 -0.000001 -179.486000 15.217700 -179.701000 -39.081100 -0.002282 -0.040193 -0.014058 0.049907 19.200900 -40.985400 0.000008 0.000006 5.103060 5.781400 -66.524700 -11.754300 -0.000006 -0.000006 -0.005883 -0.069770 -19.412500
0.000000 0.000000 0.000000 0.000000 0.000000 -0.000000 -2.440500 92.321000 -1.461960 88.592700 1.198100 3.829680 15.735700 0.000005 -0.000001 77.772800 85.755600 -76.372600 8.984550 -0.406207 -0.000000 0.555330 -1.885330 2.807740 16.377300 -0.000001 -0.000001 2.639150 -2.941860 -1.712200 6.456720 -0.000001 -0.000000 3.586120 -3.853490 -1.424920 12.994200 -0.242716 4.980390 -88.086600 -5.747090 -71.549900 5.348090 -0.000007 -0.000001 -80.609200 -34.160200 -83.025100 24.328600 0.000019 0.000005 5.597700 0.253816 -87.412300 22.291600 -0.000001 0.000005 21.784400 5.593830 -10.980600 12.994500 -0.242716 -4.980390 88.278800 5.664350 -73.066800 -5.348130 -0.000001 -0.000004 -63.626700 40.031800 -16.760500 -24.328900 0.000322 -0.000009 2.090180 7.210270 -16.221300 -22.291500 -0.000108 -0.000004 8.425960 5.429090 -3.907770 -2.192480 -6.469440 -0.000000 -174.988000 -5.035320 -2.975920 39.081100 -0.000007 -0.000012 -0.111720 0.274617 22.137700 40.985400 -0.000006 -0.000013 -1.083630 4.936090 -65.585800 11.754300 -0.000000 0.000003 -0.000027 -0.000325 -16.590200 -2.192510 6.469440 -0.000001 -179.459000 15.173600 -179.708000 -39.081100 -0.002282 -0.040193 -0.014305 0.050591 19.210100 -40.985400 0.000008 0.000006 5.158550 5.790260 -66.506400 -11.754300 -0.000006 -0.000006 -0.005898 -0.069903 -19.418000
0.000000 0.000000 0.000000 0.000000 0.000000 -0.000000 -2.449200 92.325900 -1.521840 88.591100 1.151020 3.785310 15.735700 0.000005 -0.000001 78.036300 85.749400 -76.667900 8.984550 -0.406207 -0.000000 0.574564 -1.847500 2.744190 16.377300 -0.000001 -0.000001 2.548980 -2.925080 -1.705200 6.456720 -0.000001 -0.000000 3.551020 -3.858180 -1.341340 12.994200 -0.242716 4.980390 -88.085800 -5.747970 -71.545500 5.348090 -0.000007 -0.000001 -80.371500 -34.302500 -82.605100 24.328600 0.000019 0.000005 5.413120 0.227761 -87.598000 22.291600 -0.000001 0.000005 21.706000 5.593440 -10.957400 12.994500 -0.242716 -4.980390 88.281000 5.672740 -73.111200 -5.348130 -0.000001 -0.000004 -63.702800 40.078800 -16.682500 -24.328900 0.000322 -0.000009 2.121770 7.345910 -16.167100 -22.291500 -0.000108 -0.000004 8.372450 5.429610 -3.925780 -2.192480 -6.469440 -0.000000 -174.989000 -5.052090 -3.059120 39.081100 -0.000007 -0.000012 -0.111718 0.274651 22.134700 40.985400 -0.000006 -0.000013 -1.095610 4.908680 -65.540800 11.754300 -0.000000 0.000003 -0.000027 -0.000328 -16.590400 -2.192510 6.469440 -0.000001 -179.424000 15.165300 -179.807000 -39.081100 -0.002282 -0.040193 -0.014664 0.051599 19.217900 -40.985400 0.000008 0.000006 5.153270 5.796490 -66.462400 -11.754300 -0.000006 -0.000006 -0.005852 -0.069484 -19.400900
0.000000 0.000000 0.000000 0.000000 0.000000 -0.000000 -2.454450 92.335000 -1.577850 88.564400 1.100390 3.776320 15.735700 0.000005 -0.000001 78.348300 85.728000 -76.999600 8.984550 -0.406207 -0.000000 0.625157 -1.809000 2.705300 16.377300 -0.000001 -0.000001 2.462570 -2.907950 -1.718960 6.456720 -0.000001 -0.000000 3.536250 -3.866100 -1.308610 12.994200 -0.242716 4.980390 -88.091300 -5.732940 -71.550600 5.348090 -0.000007 -0.000001 -79.798600 -34.514000 -81.633100 24.328600 0.000019 0.000005 5.322980 0.173394 -88.139800 22.291600 -0.000001 0.000005 21.538700 5.590480 -10.788500 12.994500 -0.242716 -4.980390 88.266300 5.732360 -73.140800 -5.348130 -0.000001 -0.000004 -63.724400 40.159300 -16.594100 -24.328900 0.000322 -0.000009 2.067830 7.181440 -16.117500 -22.291500 -0.000108 -0.000004 8.362210 5.428920 -3.901940 -2.192480 -6.469440 -0.000000 -174.970000 -5.058480 -3.091130 39.081100 -0.000007 -0.000012 -0.110930 0.272942 22.118000 40.985400 -0.000006 -0.000013 -1.105080 4.858610 -65.498700 11.754300 -0.000000 0.000003 -0.000027 -0.000325 -16.590300 -2.192510 6.469440 -0.000001 -179.382000 15.147900 -179.843000 -39.081100 -0.002282 -0.040193 -0.013513 0.048425 19.171000 -40.985400 0.000008 0.000006 5.155320 5.845290 -66.393500 -11.754300 -0.000006 -0.000006 -0.005720 -0.068267 -19.351300
